<?xml version="1.0" encoding="UTF-8" standalone="no"?>
<!-- Created with Inkscape (http://www.inkscape.org/) -->
<svg
   xmlns:dc="http://purl.org/dc/elements/1.1/"
   xmlns:cc="http://web.resource.org/cc/"
   xmlns:rdf="http://www.w3.org/1999/02/22-rdf-syntax-ns#"
   xmlns:svg="http://www.w3.org/2000/svg"
   xmlns="http://www.w3.org/2000/svg"
   xmlns:sodipodi="http://sodipodi.sourceforge.net/DTD/sodipodi-0.dtd"
   xmlns:inkscape="http://www.inkscape.org/namespaces/inkscape"
   width="305.71429"
   height="345.71429"
   id="svg2"
   sodipodi:version="0.32"
   inkscape:version="0.45"
   version="1.0"
   sodipodi:docbase="/home/vincent/savonet"
   sodipodi:docname="essai-logo.svg"
   inkscape:output_extension="org.inkscape.output.svg.inkscape"
   sodipodi:modified="true">
  <defs
     id="defs4" />
  <sodipodi:namedview
     id="base"
     pagecolor="#ffffff"
     bordercolor="#666666"
     borderopacity="1.0"
     inkscape:pageopacity="0.0"
     inkscape:pageshadow="2"
     inkscape:zoom="0.7"
     inkscape:cx="-118.68109"
     inkscape:cy="238.58724"
     inkscape:document-units="px"
     inkscape:current-layer="layer1"
     showgrid="true"
     inkscape:window-width="1280"
     inkscape:window-height="949"
     inkscape:window-x="0"
     inkscape:window-y="25" />
  <metadata
     id="metadata7">
    <rdf:RDF>
      <cc:Work
         rdf:about="">
        <dc:format>image/svg+xml</dc:format>
        <dc:type
           rdf:resource="http://purl.org/dc/dcmitype/StillImage" />
      </cc:Work>
    </rdf:RDF>
  </metadata>
  <g
     inkscape:label="Calque 1"
     inkscape:groupmode="layer"
     id="layer1"
     transform="translate(-0.1428528,0.1020942)">
    <rect
       style="fill:#990066;fill-opacity:1;stroke:#cc0099;stroke-width:9.90544128;stroke-miterlimit:4;stroke-dasharray:none;stroke-opacity:1"
       id="rect6047"
       width="295.80884"
       height="335.80884"
       x="5.0955734"
       y="4.8506265"
       rx="14.650909"
       ry="15.068346" />
    <path
       style="fill:none;stroke:#ffffff;stroke-width:20;stroke-linecap:round;stroke-linejoin:round;stroke-miterlimit:4;stroke-dasharray:none;stroke-opacity:1"
       d="M 155.36047,95.809249 C 167.52038,95.809249 175,95.809249 175,95.809249 C 183.31,95.809249 190,102.49925 190,110.80925 L 190,280.80925 C 190,289.11925 183.31,295.80925 175,295.80925 L 79.23601,295.80925 C 70.92601,295.80925 64.23601,289.11925 64.23601,280.80925 L 64.23601,110.80925 C 64.23601,102.49925 70.92601,95.809249 79.23601,95.809249 L 98.98013,95.809249"
       id="rect2162"
       sodipodi:nodetypes="cccccccccc" />
    <path
       style="fill:none;stroke:#ffffff;stroke-width:20;stroke-linecap:round;stroke-linejoin:round;stroke-miterlimit:4;stroke-dasharray:none;stroke-opacity:1"
       d="M 126.86515,223.8892 L 126.86515,66.758441 C 126.86515,58.448441 133.55515,51.758441 141.86515,51.758441 L 214.39564,51.758441 C 222.70564,51.758441 229.39564,58.448441 229.39564,66.758441 L 229.39564,86.508455"
       id="rect3135"
       sodipodi:nodetypes="cccccc" />
    <path
       style="fill:#ffffff;fill-opacity:1;fill-rule:evenodd;stroke:#ffffff;stroke-width:0.52876502px;stroke-linecap:butt;stroke-linejoin:miter;stroke-opacity:1"
       d="M 230.85906,107.10731 C 230.85906,107.10731 230.71489,148.09239 259.30167,141.02478 C 273.98559,137.39442 264.36122,114.33209 250.67124,117.69591 C 241.37207,119.98084 230.90682,107.10731 230.85906,107.10731 z "
       id="path5076"
       sodipodi:nodetypes="cssc" />
  </g>
</svg>
